<?xml version="1.0" encoding="UTF-8"?>
<svg version="1.1" xmlns="http://www.w3.org/2000/svg" width="512" height="512">
<path d="M0 0 C10.56 0 21.12 0 32 0 C32 5.28 32 10.56 32 16 C42.56 16 53.12 16 64 16 C64 10.72 64 5.44 64 0 C132.64 0 201.28 0 272 0 C272 5.28 272 10.56 272 16 C282.56 16 293.12 16 304 16 C304 21.28 304 26.56 304 32 C314.56 32 325.12 32 336 32 C336 21.44 336 10.88 336 0 C372.96 0 409.92 0 448 0 C448 5.28 448 10.56 448 16 C453.28 16 458.56 16 464 16 C464 63.52 464 111.04 464 160 C458.72 160 453.44 160 448 160 C448 165.28 448 170.56 448 176 C453.28 176 458.56 176 464 176 C464 228.8 464 281.6 464 336 C458.72 336 453.44 336 448 336 C448 346.56 448 357.12 448 368 C453.28 368 458.56 368 464 368 C464 399.68 464 431.36 464 464 C458.72 464 453.44 464 448 464 C448 469.28 448 474.56 448 480 C321.28 480 194.56 480 64 480 C64 469.44 64 458.88 64 448 C58.72 448 53.44 448 48 448 C48 453.28 48 458.56 48 464 C42.72 464 37.44 464 32 464 C32 469.28 32 474.56 32 480 C21.44 480 10.88 480 0 480 C0 474.72 0 469.44 0 464 C-5.28 464 -10.56 464 -16 464 C-16 442.88 -16 421.76 -16 400 C-10.72 400 -5.44 400 0 400 C0 394.72 0 389.44 0 384 C-5.28 384 -10.56 384 -16 384 C-16 320.64 -16 257.28 -16 192 C-10.72 192 -5.44 192 0 192 C0 181.44 0 170.88 0 160 C-5.28 160 -10.56 160 -16 160 C-16 112.48 -16 64.96 -16 16 C-10.72 16 -5.44 16 0 16 C0 10.72 0 5.44 0 0 Z " fill="#F1E7C7" transform="translate(32,16)"/>
<path d="M0 0 C10.56 0 21.12 0 32 0 C32 5.28 32 10.56 32 16 C42.56 16 53.12 16 64 16 C64 10.72 64 5.44 64 0 C132.64 0 201.28 0 272 0 C272 5.28 272 10.56 272 16 C282.56 16 293.12 16 304 16 C304 21.28 304 26.56 304 32 C261.76 32 219.52 32 176 32 C176 42.56 176 53.12 176 64 C186.56 64 197.12 64 208 64 C208 74.56 208 85.12 208 96 C229.12 96 250.24 96 272 96 C272 101.28 272 106.56 272 112 C277.28 112 282.56 112 288 112 C288 117.28 288 122.56 288 128 C293.28 128 298.56 128 304 128 C304 170.24 304 212.48 304 256 C298.72 256 293.44 256 288 256 C288 261.28 288 266.56 288 272 C282.72 272 277.44 272 272 272 C272 277.28 272 282.56 272 288 C261.44 288 250.88 288 240 288 C240 256.32 240 224.64 240 192 C234.72 192 229.44 192 224 192 C224 186.72 224 181.44 224 176 C218.72 176 213.44 176 208 176 C208 170.72 208 165.44 208 160 C202.72 160 197.44 160 192 160 C192 154.72 192 149.44 192 144 C186.72 144 181.44 144 176 144 C176 138.72 176 133.44 176 128 C165.44 128 154.88 128 144 128 C144 133.28 144 138.56 144 144 C133.44 144 122.88 144 112 144 C112 149.28 112 154.56 112 160 C106.72 160 101.44 160 96 160 C96 170.56 96 181.12 96 192 C101.28 192 106.56 192 112 192 C112 202.56 112 213.12 112 224 C117.28 224 122.56 224 128 224 C128 239.84 128 255.68 128 272 C117.44 272 106.88 272 96 272 C96 261.44 96 250.88 96 240 C85.44 240 74.88 240 64 240 C64 229.44 64 218.88 64 208 C58.72 208 53.44 208 48 208 C48 202.72 48 197.44 48 192 C37.44 192 26.88 192 16 192 C16 271.2 16 350.4 16 432 C21.28 432 26.56 432 32 432 C32 437.28 32 442.56 32 448 C37.28 448 42.56 448 48 448 C48 453.28 48 458.56 48 464 C42.72 464 37.44 464 32 464 C32 469.28 32 474.56 32 480 C21.44 480 10.88 480 0 480 C0 474.72 0 469.44 0 464 C-5.28 464 -10.56 464 -16 464 C-16 442.88 -16 421.76 -16 400 C-10.72 400 -5.44 400 0 400 C0 394.72 0 389.44 0 384 C-5.28 384 -10.56 384 -16 384 C-16 320.64 -16 257.28 -16 192 C-10.72 192 -5.44 192 0 192 C0 181.44 0 170.88 0 160 C-5.28 160 -10.56 160 -16 160 C-16 112.48 -16 64.96 -16 16 C-10.72 16 -5.44 16 0 16 C0 10.72 0 5.44 0 0 Z " fill="#919191" transform="translate(32,16)"/>
<path d="M0 0 C36.96 0 73.92 0 112 0 C112 5.28 112 10.56 112 16 C117.28 16 122.56 16 128 16 C128 63.52 128 111.04 128 160 C122.72 160 117.44 160 112 160 C112 165.28 112 170.56 112 176 C117.28 176 122.56 176 128 176 C128 228.8 128 281.6 128 336 C122.72 336 117.44 336 112 336 C112 346.56 112 357.12 112 368 C117.28 368 122.56 368 128 368 C128 399.68 128 431.36 128 464 C122.72 464 117.44 464 112 464 C112 469.28 112 474.56 112 480 C-14.72 480 -141.44 480 -272 480 C-272 469.44 -272 458.88 -272 448 C-155.84 448 -39.68 448 80 448 C80 442.72 80 437.44 80 432 C48.32 432 16.64 432 -16 432 C-16 421.44 -16 410.88 -16 400 C-5.44 400 5.12 400 16 400 C16 384.16 16 368.32 16 352 C5.44 352 -5.12 352 -16 352 C-16 346.72 -16 341.44 -16 336 C-21.28 336 -26.56 336 -32 336 C-32 341.28 -32 346.56 -32 352 C-37.28 352 -42.56 352 -48 352 C-48 373.12 -48 394.24 -48 416 C-53.28 416 -58.56 416 -64 416 C-64 421.28 -64 426.56 -64 432 C-85.12 432 -106.24 432 -128 432 C-128 426.72 -128 421.44 -128 416 C-133.28 416 -138.56 416 -144 416 C-144 384.32 -144 352.64 -144 320 C-133.44 320 -122.88 320 -112 320 C-112 346.4 -112 372.8 -112 400 C-101.44 400 -90.88 400 -80 400 C-80 373.6 -80 347.2 -80 320 C-74.72 320 -69.44 320 -64 320 C-64 314.72 -64 309.44 -64 304 C-58.72 304 -53.44 304 -48 304 C-48 298.72 -48 293.44 -48 288 C-42.72 288 -37.44 288 -32 288 C-32 282.72 -32 277.44 -32 272 C-26.72 272 -21.44 272 -16 272 C-16 266.72 -16 261.44 -16 256 C-10.72 256 -5.44 256 0 256 C0 250.72 0 245.44 0 240 C5.28 240 10.56 240 16 240 C16 234.72 16 229.44 16 224 C21.28 224 26.56 224 32 224 C32 218.72 32 213.44 32 208 C37.28 208 42.56 208 48 208 C48 202.72 48 197.44 48 192 C63.84 192 79.68 192 96 192 C96 144.48 96 96.96 96 48 C90.72 48 85.44 48 80 48 C80 42.72 80 37.44 80 32 C53.6 32 27.2 32 0 32 C0 21.44 0 10.88 0 0 Z " fill="#DECF96" transform="translate(368,16)"/>
<path d="M0 0 C36.96 0 73.92 0 112 0 C112 5.28 112 10.56 112 16 C117.28 16 122.56 16 128 16 C128 63.52 128 111.04 128 160 C122.72 160 117.44 160 112 160 C112 165.28 112 170.56 112 176 C117.28 176 122.56 176 128 176 C128 228.8 128 281.6 128 336 C122.72 336 117.44 336 112 336 C112 346.56 112 357.12 112 368 C117.28 368 122.56 368 128 368 C128 399.68 128 431.36 128 464 C122.72 464 117.44 464 112 464 C112 469.28 112 474.56 112 480 C-14.72 480 -141.44 480 -272 480 C-272 469.44 -272 458.88 -272 448 C-155.84 448 -39.68 448 80 448 C80 442.72 80 437.44 80 432 C85.28 432 90.56 432 96 432 C96 305.28 96 178.56 96 48 C90.72 48 85.44 48 80 48 C80 42.72 80 37.44 80 32 C53.6 32 27.2 32 0 32 C0 21.44 0 10.88 0 0 Z " fill="#8A672F" transform="translate(368,16)"/>
<path d="M0 0 C10.56 0 21.12 0 32 0 C32 5.28 32 10.56 32 16 C42.56 16 53.12 16 64 16 C64 10.72 64 5.44 64 0 C132.64 0 201.28 0 272 0 C272 5.28 272 10.56 272 16 C282.56 16 293.12 16 304 16 C304 21.28 304 26.56 304 32 C261.76 32 219.52 32 176 32 C176 42.56 176 53.12 176 64 C170.72 64 165.44 64 160 64 C160 58.72 160 53.44 160 48 C154.72 48 149.44 48 144 48 C144 53.28 144 58.56 144 64 C138.72 64 133.44 64 128 64 C128 58.72 128 53.44 128 48 C122.72 48 117.44 48 112 48 C112 53.28 112 58.56 112 64 C106.72 64 101.44 64 96 64 C96 53.44 96 42.88 96 32 C74.88 32 53.76 32 32 32 C32 37.28 32 42.56 32 48 C26.72 48 21.44 48 16 48 C16 69.12 16 90.24 16 112 C26.56 112 37.12 112 48 112 C48 117.28 48 122.56 48 128 C42.72 128 37.44 128 32 128 C32 133.28 32 138.56 32 144 C37.28 144 42.56 144 48 144 C48 149.28 48 154.56 48 160 C42.72 160 37.44 160 32 160 C32 165.28 32 170.56 32 176 C37.28 176 42.56 176 48 176 C48 181.28 48 186.56 48 192 C37.44 192 26.88 192 16 192 C16 271.2 16 350.4 16 432 C21.28 432 26.56 432 32 432 C32 437.28 32 442.56 32 448 C37.28 448 42.56 448 48 448 C48 453.28 48 458.56 48 464 C42.72 464 37.44 464 32 464 C32 469.28 32 474.56 32 480 C21.44 480 10.88 480 0 480 C0 474.72 0 469.44 0 464 C-5.28 464 -10.56 464 -16 464 C-16 442.88 -16 421.76 -16 400 C-10.72 400 -5.44 400 0 400 C0 394.72 0 389.44 0 384 C-5.28 384 -10.56 384 -16 384 C-16 320.64 -16 257.28 -16 192 C-10.72 192 -5.44 192 0 192 C0 181.44 0 170.88 0 160 C-5.28 160 -10.56 160 -16 160 C-16 112.48 -16 64.96 -16 16 C-10.72 16 -5.44 16 0 16 C0 10.72 0 5.44 0 0 Z " fill="#8A672F" transform="translate(32,16)"/>
<path d="M0 0 C15.84 0 31.68 0 48 0 C48 5.28 48 10.56 48 16 C90.24 16 132.48 16 176 16 C176 21.28 176 26.56 176 32 C181.28 32 186.56 32 192 32 C192 74.24 192 116.48 192 160 C186.72 160 181.44 160 176 160 C176 165.28 176 170.56 176 176 C170.72 176 165.44 176 160 176 C160 181.28 160 186.56 160 192 C149.44 192 138.88 192 128 192 C128 160.32 128 128.64 128 96 C122.72 96 117.44 96 112 96 C112 90.72 112 85.44 112 80 C106.72 80 101.44 80 96 80 C96 74.72 96 69.44 96 64 C90.72 64 85.44 64 80 64 C80 58.72 80 53.44 80 48 C74.72 48 69.44 48 64 48 C64 42.72 64 37.44 64 32 C53.44 32 42.88 32 32 32 C32 37.28 32 42.56 32 48 C21.44 48 10.88 48 0 48 C0 53.28 0 58.56 0 64 C-10.56 64 -21.12 64 -32 64 C-32 53.44 -32 42.88 -32 32 C-26.72 32 -21.44 32 -16 32 C-16 26.72 -16 21.44 -16 16 C-10.72 16 -5.44 16 0 16 C0 10.72 0 5.44 0 0 Z " fill="#CFCFCF" transform="translate(144,112)"/>
<path d="M0 0 C5.28 0 10.56 0 16 0 C16 5.28 16 10.56 16 16 C26.56 16 37.12 16 48 16 C48 31.84 48 47.68 48 64 C37.44 64 26.88 64 16 64 C16 74.56 16 85.12 16 96 C47.68 96 79.36 96 112 96 C112 101.28 112 106.56 112 112 C22.24 112 -67.52 112 -160 112 C-160 106.72 -160 101.44 -160 96 C-154.72 96 -149.44 96 -144 96 C-144 90.72 -144 85.44 -144 80 C-138.72 80 -133.44 80 -128 80 C-128 74.72 -128 69.44 -128 64 C-122.72 64 -117.44 64 -112 64 C-112 69.28 -112 74.56 -112 80 C-106.72 80 -101.44 80 -96 80 C-96 85.28 -96 90.56 -96 96 C-74.88 96 -53.76 96 -32 96 C-32 90.72 -32 85.44 -32 80 C-26.72 80 -21.44 80 -16 80 C-16 58.88 -16 37.76 -16 16 C-10.72 16 -5.44 16 0 16 C0 10.72 0 5.44 0 0 Z " fill="#E8DAA9" transform="translate(336,352)"/>
<path d="M0 0 C10.56 0 21.12 0 32 0 C32 5.28 32 10.56 32 16 C37.28 16 42.56 16 48 16 C48 21.28 48 26.56 48 32 C53.28 32 58.56 32 64 32 C64 37.28 64 42.56 64 48 C69.28 48 74.56 48 80 48 C80 53.28 80 58.56 80 64 C64.16 64 48.32 64 32 64 C32 58.72 32 53.44 32 48 C26.72 48 21.44 48 16 48 C16 53.28 16 58.56 16 64 C10.72 64 5.44 64 0 64 C0 69.28 0 74.56 0 80 C5.28 80 10.56 80 16 80 C16 85.28 16 90.56 16 96 C21.28 96 26.56 96 32 96 C32 101.28 32 106.56 32 112 C47.84 112 63.68 112 80 112 C80 122.56 80 133.12 80 144 C74.72 144 69.44 144 64 144 C64 149.28 64 154.56 64 160 C58.72 160 53.44 160 48 160 C48 154.72 48 149.44 48 144 C42.72 144 37.44 144 32 144 C32 138.72 32 133.44 32 128 C21.44 128 10.88 128 0 128 C0 117.44 0 106.88 0 96 C-10.56 96 -21.12 96 -32 96 C-32 85.44 -32 74.88 -32 64 C-37.28 64 -42.56 64 -48 64 C-48 53.44 -48 42.88 -48 32 C-42.72 32 -37.44 32 -32 32 C-32 26.72 -32 21.44 -32 16 C-21.44 16 -10.88 16 0 16 C0 10.72 0 5.44 0 0 Z " fill="#FFFFFF" transform="translate(176,144)"/>
<path d="M0 0 C10.56 0 21.12 0 32 0 C32 63.36 32 126.72 32 192 C26.72 192 21.44 192 16 192 C16 181.44 16 170.88 16 160 C5.44 160 -5.12 160 -16 160 C-16 144.16 -16 128.32 -16 112 C-5.44 112 5.12 112 16 112 C16 101.44 16 90.88 16 80 C-10.4 80 -36.8 80 -64 80 C-64 74.72 -64 69.44 -64 64 C-58.72 64 -53.44 64 -48 64 C-48 58.72 -48 53.44 -48 48 C-42.72 48 -37.44 48 -32 48 C-32 42.72 -32 37.44 -32 32 C-26.72 32 -21.44 32 -16 32 C-16 26.72 -16 21.44 -16 16 C-10.72 16 -5.44 16 0 16 C0 10.72 0 5.44 0 0 Z " fill="#E9DBAB" transform="translate(432,256)"/>
<path d="M0 0 C31.68 0 63.36 0 96 0 C96 10.56 96 21.12 96 32 C85.44 32 74.88 32 64 32 C64 47.84 64 63.68 64 80 C74.56 80 85.12 80 96 80 C96 90.56 96 101.12 96 112 C64.32 112 32.64 112 0 112 C0 101.44 0 90.88 0 80 C10.56 80 21.12 80 32 80 C32 64.16 32 48.32 32 32 C21.44 32 10.88 32 0 32 C0 21.44 0 10.88 0 0 Z " fill="#96232C" transform="translate(352,336)"/>
<path d="M0 0 C10.56 0 21.12 0 32 0 C32 26.4 32 52.8 32 80 C42.56 80 53.12 80 64 80 C64 53.6 64 27.2 64 0 C74.56 0 85.12 0 96 0 C96 31.68 96 63.36 96 96 C90.72 96 85.44 96 80 96 C80 101.28 80 106.56 80 112 C58.88 112 37.76 112 16 112 C16 106.72 16 101.44 16 96 C10.72 96 5.44 96 0 96 C0 64.32 0 32.64 0 0 Z " fill="#96232C" transform="translate(224,336)"/>
<path d="M0 0 C126.72 0 253.44 0 384 0 C384 5.28 384 10.56 384 16 C257.28 16 130.56 16 0 16 C0 10.72 0 5.44 0 0 Z " fill="#543D19" transform="translate(96,480)"/>
<path d="M0 0 C5.28 0 10.56 0 16 0 C16 5.28 16 10.56 16 16 C21.28 16 26.56 16 32 16 C32 10.72 32 5.44 32 0 C37.28 0 42.56 0 48 0 C48 5.28 48 10.56 48 16 C63.84 16 79.68 16 96 16 C96 26.56 96 37.12 96 48 C117.12 48 138.24 48 160 48 C160 53.28 160 58.56 160 64 C123.04 64 86.08 64 48 64 C48 58.72 48 53.44 48 48 C21.6 48 -4.8 48 -32 48 C-32 42.72 -32 37.44 -32 32 C-26.72 32 -21.44 32 -16 32 C-16 26.72 -16 21.44 -16 16 C-10.72 16 -5.44 16 0 16 C0 10.72 0 5.44 0 0 Z " fill="#919191" transform="translate(144,64)"/>
<path d="M0 0 C10.56 0 21.12 0 32 0 C32 5.28 32 10.56 32 16 C37.28 16 42.56 16 48 16 C48 26.56 48 37.12 48 48 C58.56 48 69.12 48 80 48 C80 53.28 80 58.56 80 64 C74.72 64 69.44 64 64 64 C64 69.28 64 74.56 64 80 C58.72 80 53.44 80 48 80 C48 85.28 48 90.56 48 96 C42.72 96 37.44 96 32 96 C32 101.28 32 106.56 32 112 C26.72 112 21.44 112 16 112 C16 117.28 16 122.56 16 128 C10.72 128 5.44 128 0 128 C0 85.76 0 43.52 0 0 Z " fill="#E7D7A2" transform="translate(48,208)"/>
<path d="M0 0 C42.24 0 84.48 0 128 0 C128 5.28 128 10.56 128 16 C122.72 16 117.44 16 112 16 C112 21.28 112 26.56 112 32 C106.72 32 101.44 32 96 32 C96 37.28 96 42.56 96 48 C90.72 48 85.44 48 80 48 C80 53.28 80 58.56 80 64 C64.16 64 48.32 64 32 64 C32 53.44 32 42.88 32 32 C21.44 32 10.88 32 0 32 C0 21.44 0 10.88 0 0 Z " fill="#E2D39C" transform="translate(208,48)"/>
<path d="M0 0 C15.84 0 31.68 0 48 0 C48 5.28 48 10.56 48 16 C37.44 16 26.88 16 16 16 C16 21.28 16 26.56 16 32 C10.72 32 5.44 32 0 32 C0 37.28 0 42.56 0 48 C-5.28 48 -10.56 48 -16 48 C-16 53.28 -16 58.56 -16 64 C-21.28 64 -26.56 64 -32 64 C-32 69.28 -32 74.56 -32 80 C-37.28 80 -42.56 80 -48 80 C-48 85.28 -48 90.56 -48 96 C-53.28 96 -58.56 96 -64 96 C-64 101.28 -64 106.56 -64 112 C-69.28 112 -74.56 112 -80 112 C-80 117.28 -80 122.56 -80 128 C-90.56 128 -101.12 128 -112 128 C-112 122.72 -112 117.44 -112 112 C-106.72 112 -101.44 112 -96 112 C-96 106.72 -96 101.44 -96 96 C-90.72 96 -85.44 96 -80 96 C-80 90.72 -80 85.44 -80 80 C-74.72 80 -69.44 80 -64 80 C-64 74.72 -64 69.44 -64 64 C-58.72 64 -53.44 64 -48 64 C-48 58.72 -48 53.44 -48 48 C-42.72 48 -37.44 48 -32 48 C-32 42.72 -32 37.44 -32 32 C-26.72 32 -21.44 32 -16 32 C-16 26.72 -16 21.44 -16 16 C-10.72 16 -5.44 16 0 16 C0 10.72 0 5.44 0 0 Z " fill="#E7D7A2" transform="translate(416,208)"/>
<path d="M0 0 C21.12 0 42.24 0 64 0 C64 10.56 64 21.12 64 32 C53.44 32 42.88 32 32 32 C32 42.56 32 53.12 32 64 C26.72 64 21.44 64 16 64 C16 69.28 16 74.56 16 80 C5.44 80 -5.12 80 -16 80 C-16 58.88 -16 37.76 -16 16 C-10.72 16 -5.44 16 0 16 C0 10.72 0 5.44 0 0 Z " fill="#DFCA83" transform="translate(64,48)"/>
<path d="M0 0 C10.56 0 21.12 0 32 0 C32 31.68 32 63.36 32 96 C26.72 96 21.44 96 16 96 C16 101.28 16 106.56 16 112 C5.44 112 -5.12 112 -16 112 C-16 106.72 -16 101.44 -16 96 C-10.72 96 -5.44 96 0 96 C0 64.32 0 32.64 0 0 Z " fill="#821E27" transform="translate(288,336)"/>
<path d="M0 0 C10.56 0 21.12 0 32 0 C32 10.56 32 21.12 32 32 C21.44 32 10.88 32 0 32 C0 47.84 0 63.68 0 80 C10.56 80 21.12 80 32 80 C32 90.56 32 101.12 32 112 C21.44 112 10.88 112 0 112 C0 106.72 0 101.44 0 96 C-5.28 96 -10.56 96 -16 96 C-16 69.6 -16 43.2 -16 16 C-10.72 16 -5.44 16 0 16 C0 10.72 0 5.44 0 0 Z " fill="#821E27" transform="translate(416,336)"/>
<path d="M0 0 C5.28 0 10.56 0 16 0 C16 5.28 16 10.56 16 16 C31.84 16 47.68 16 64 16 C64 31.84 64 47.68 64 64 C48.16 64 32.32 64 16 64 C16 58.72 16 53.44 16 48 C10.72 48 5.44 48 0 48 C0 42.72 0 37.44 0 32 C-5.28 32 -10.56 32 -16 32 C-16 26.72 -16 21.44 -16 16 C-10.72 16 -5.44 16 0 16 C0 10.72 0 5.44 0 0 Z " fill="#1F1F1F" transform="translate(192,192)"/>
<path d="M0 0 C68.64 0 137.28 0 208 0 C208 5.28 208 10.56 208 16 C139.36 16 70.72 16 0 16 C0 10.72 0 5.44 0 0 Z " fill="#543D19" transform="translate(96,16)"/>
<path d="M0 0 C5.28 0 10.56 0 16 0 C16 63.36 16 126.72 16 192 C10.72 192 5.44 192 0 192 C0 128.64 0 65.28 0 0 Z " fill="#543D19" transform="translate(16,208)"/>
<path d="M0 0 C15.84 0 31.68 0 48 0 C48 5.28 48 10.56 48 16 C42.72 16 37.44 16 32 16 C32 26.56 32 37.12 32 48 C21.44 48 10.88 48 0 48 C0 53.28 0 58.56 0 64 C-10.56 64 -21.12 64 -32 64 C-32 53.44 -32 42.88 -32 32 C-26.72 32 -21.44 32 -16 32 C-16 26.72 -16 21.44 -16 16 C-10.72 16 -5.44 16 0 16 C0 10.72 0 5.44 0 0 Z " fill="#E9DBAB" transform="translate(144,112)"/>
<path d="M0 0 C5.28 0 10.56 0 16 0 C16 52.8 16 105.6 16 160 C10.72 160 5.44 160 0 160 C0 107.2 0 54.4 0 0 Z " fill="#543D19" transform="translate(480,192)"/>
<path d="M0 0 C10.56 0 21.12 0 32 0 C32 10.56 32 21.12 32 32 C53.12 32 74.24 32 96 32 C96 37.28 96 42.56 96 48 C59.04 48 22.08 48 -16 48 C-16 42.72 -16 37.44 -16 32 C-5.44 32 5.12 32 16 32 C16 26.72 16 21.44 16 16 C10.72 16 5.44 16 0 16 C0 10.72 0 5.44 0 0 Z " fill="#8A8A8A" transform="translate(208,80)"/>
<path d="M0 0 C5.28 0 10.56 0 16 0 C16 10.56 16 21.12 16 32 C21.28 32 26.56 32 32 32 C32 47.84 32 63.68 32 80 C21.44 80 10.88 80 0 80 C0 64.16 0 48.32 0 32 C-5.28 32 -10.56 32 -16 32 C-16 26.72 -16 21.44 -16 16 C-10.72 16 -5.44 16 0 16 C0 10.72 0 5.44 0 0 Z " fill="#8B8B8B" transform="translate(128,208)"/>
<path d="M0 0 C5.28 0 10.56 0 16 0 C16 15.84 16 31.68 16 48 C10.72 48 5.44 48 0 48 C0 53.28 0 58.56 0 64 C-10.56 64 -21.12 64 -32 64 C-32 48.16 -32 32.32 -32 16 C-21.44 16 -10.88 16 0 16 C0 10.72 0 5.44 0 0 Z " fill="#141414" transform="translate(320,176)"/>
<path d="M0 0 C10.56 0 21.12 0 32 0 C32 5.28 32 10.56 32 16 C37.28 16 42.56 16 48 16 C48 21.28 48 26.56 48 32 C53.28 32 58.56 32 64 32 C64 37.28 64 42.56 64 48 C69.28 48 74.56 48 80 48 C80 53.28 80 58.56 80 64 C64.16 64 48.32 64 32 64 C32 53.44 32 42.88 32 32 C26.72 32 21.44 32 16 32 C16 26.72 16 21.44 16 16 C10.72 16 5.44 16 0 16 C0 10.72 0 5.44 0 0 Z " fill="#E6E6E6" transform="translate(176,144)"/>
<path d="M0 0 C5.28 0 10.56 0 16 0 C16 47.52 16 95.04 16 144 C10.72 144 5.44 144 0 144 C0 96.48 0 48.96 0 0 Z " fill="#543D19" transform="translate(480,32)"/>
<path d="M0 0 C5.28 0 10.56 0 16 0 C16 47.52 16 95.04 16 144 C10.72 144 5.44 144 0 144 C0 96.48 0 48.96 0 0 Z " fill="#543D19" transform="translate(16,32)"/>
<path d="M0 0 C15.84 0 31.68 0 48 0 C48 21.12 48 42.24 48 64 C42.72 64 37.44 64 32 64 C32 53.44 32 42.88 32 32 C21.44 32 10.88 32 0 32 C0 21.44 0 10.88 0 0 Z " fill="#DFCA83" transform="translate(416,384)"/>
<path d="M0 0 C5.28 0 10.56 0 16 0 C16 10.56 16 21.12 16 32 C21.28 32 26.56 32 32 32 C32 37.28 32 42.56 32 48 C42.56 48 53.12 48 64 48 C64 53.28 64 58.56 64 64 C48.16 64 32.32 64 16 64 C16 58.72 16 53.44 16 48 C10.72 48 5.44 48 0 48 C0 32.16 0 16.32 0 0 Z " fill="#E8D8A4" transform="translate(48,400)"/>
<path d="M0 0 C5.28 0 10.56 0 16 0 C16 21.12 16 42.24 16 64 C5.44 64 -5.12 64 -16 64 C-16 48.16 -16 32.32 -16 16 C-10.72 16 -5.44 16 0 16 C0 10.72 0 5.44 0 0 Z " fill="#E7D7A2" transform="translate(272,352)"/>
<path d="M0 0 C5.28 0 10.56 0 16 0 C16 31.68 16 63.36 16 96 C5.44 96 -5.12 96 -16 96 C-16 90.72 -16 85.44 -16 80 C-10.72 80 -5.44 80 0 80 C0 53.6 0 27.2 0 0 Z " fill="#E6E6E6" transform="translate(256,208)"/>
<path d="M0 0 C10.56 0 21.12 0 32 0 C32 5.28 32 10.56 32 16 C37.28 16 42.56 16 48 16 C48 21.28 48 26.56 48 32 C42.72 32 37.44 32 32 32 C32 37.28 32 42.56 32 48 C21.44 48 10.88 48 0 48 C0 32.16 0 16.32 0 0 Z " fill="#E9DBAB" transform="translate(48,208)"/>
<path d="M0 0 C15.84 0 31.68 0 48 0 C48 5.28 48 10.56 48 16 C53.28 16 58.56 16 64 16 C64 31.84 64 47.68 64 64 C58.72 64 53.44 64 48 64 C48 53.44 48 42.88 48 32 C42.72 32 37.44 32 32 32 C32 26.72 32 21.44 32 16 C21.44 16 10.88 16 0 16 C0 10.72 0 5.44 0 0 Z " fill="#E8D8A4" transform="translate(400,48)"/>
<path d="M0 0 C21.12 0 42.24 0 64 0 C64 5.28 64 10.56 64 16 C58.72 16 53.44 16 48 16 C48 21.28 48 26.56 48 32 C32.16 32 16.32 32 0 32 C0 21.44 0 10.88 0 0 Z " fill="#E9DBAB" transform="translate(208,48)"/>
<path d="M0 0 C36.96 0 73.92 0 112 0 C112 5.28 112 10.56 112 16 C75.04 16 38.08 16 0 16 C0 10.72 0 5.44 0 0 Z " fill="#543D19" transform="translate(368,16)"/>
<path d="M0 0 C31.68 0 63.36 0 96 0 C96 5.28 96 10.56 96 16 C64.32 16 32.64 16 0 16 C0 10.72 0 5.44 0 0 Z " fill="#DFCA83" transform="translate(352,448)"/>
<path d="M0 0 C5.28 0 10.56 0 16 0 C16 31.68 16 63.36 16 96 C10.72 96 5.44 96 0 96 C0 64.32 0 32.64 0 0 Z " fill="#543D19" transform="translate(480,384)"/>
<path d="M0 0 C5.28 0 10.56 0 16 0 C16 10.56 16 21.12 16 32 C10.72 32 5.44 32 0 32 C0 37.28 0 42.56 0 48 C-10.56 48 -21.12 48 -32 48 C-32 37.44 -32 26.88 -32 16 C-21.44 16 -10.88 16 0 16 C0 10.72 0 5.44 0 0 Z " fill="#DECF96" transform="translate(80,240)"/>
<path d="M0 0 C5.28 0 10.56 0 16 0 C16 26.4 16 52.8 16 80 C10.72 80 5.44 80 0 80 C0 53.6 0 27.2 0 0 Z " fill="#96232C" transform="translate(288,336)"/>
<path d="M0 0 C5.28 0 10.56 0 16 0 C16 21.12 16 42.24 16 64 C10.72 64 5.44 64 0 64 C0 42.88 0 21.76 0 0 Z " fill="#543D19" transform="translate(16,416)"/>
<path d="M0 0 C5.28 0 10.56 0 16 0 C16 10.56 16 21.12 16 32 C5.44 32 -5.12 32 -16 32 C-16 26.72 -16 21.44 -16 16 C-10.72 16 -5.44 16 0 16 C0 10.72 0 5.44 0 0 Z " fill="#DECF96" transform="translate(224,432)"/>
<path d="M0 0 C5.28 0 10.56 0 16 0 C16 10.56 16 21.12 16 32 C5.44 32 -5.12 32 -16 32 C-16 26.72 -16 21.44 -16 16 C-10.72 16 -5.44 16 0 16 C0 10.72 0 5.44 0 0 Z " fill="#DECF96" transform="translate(272,384)"/>
<path d="M0 0 C15.84 0 31.68 0 48 0 C48 5.28 48 10.56 48 16 C32.16 16 16.32 16 0 16 C0 10.72 0 5.44 0 0 Z " fill="#8A8A8A" transform="translate(224,304)"/>
<path d="M0 0 C15.84 0 31.68 0 48 0 C48 5.28 48 10.56 48 16 C32.16 16 16.32 16 0 16 C0 10.72 0 5.44 0 0 Z " fill="#8A8A8A" transform="translate(176,288)"/>
<path d="M0 0 C5.28 0 10.56 0 16 0 C16 5.28 16 10.56 16 16 C21.28 16 26.56 16 32 16 C32 21.28 32 26.56 32 32 C21.44 32 10.88 32 0 32 C0 21.44 0 10.88 0 0 Z " fill="#2E2E2E" transform="translate(128,256)"/>
<path d="M0 0 C5.28 0 10.56 0 16 0 C16 5.28 16 10.56 16 16 C21.28 16 26.56 16 32 16 C32 21.28 32 26.56 32 32 C21.44 32 10.88 32 0 32 C0 21.44 0 10.88 0 0 Z " fill="#2E2E2E" transform="translate(96,224)"/>
<path d="M0 0 C5.28 0 10.56 0 16 0 C16 15.84 16 31.68 16 48 C10.72 48 5.44 48 0 48 C0 32.16 0 16.32 0 0 Z " fill="#7C7C7C" transform="translate(320,224)"/>
<path d="M0 0 C5.28 0 10.56 0 16 0 C16 5.28 16 10.56 16 16 C21.28 16 26.56 16 32 16 C32 21.28 32 26.56 32 32 C21.44 32 10.88 32 0 32 C0 21.44 0 10.88 0 0 Z " fill="#2E2E2E" transform="translate(48,176)"/>
<path d="M0 0 C5.28 0 10.56 0 16 0 C16 15.84 16 31.68 16 48 C10.72 48 5.44 48 0 48 C0 32.16 0 16.32 0 0 Z " fill="#3C3C3C" transform="translate(96,144)"/>
<path d="M0 0 C10.56 0 21.12 0 32 0 C32 5.28 32 10.56 32 16 C26.72 16 21.44 16 16 16 C16 21.28 16 26.56 16 32 C10.72 32 5.44 32 0 32 C0 21.44 0 10.88 0 0 Z " fill="#3C3C3C" transform="translate(48,128)"/>
<path d="M0 0 C10.56 0 21.12 0 32 0 C32 5.28 32 10.56 32 16 C26.72 16 21.44 16 16 16 C16 21.28 16 26.56 16 32 C10.72 32 5.44 32 0 32 C0 21.44 0 10.88 0 0 Z " fill="#3C3C3C" transform="translate(112,112)"/>
<path d="M0 0 C15.84 0 31.68 0 48 0 C48 5.28 48 10.56 48 16 C32.16 16 16.32 16 0 16 C0 10.72 0 5.44 0 0 Z " fill="#3C3C3C" transform="translate(144,96)"/>
<path d="M0 0 C10.56 0 21.12 0 32 0 C32 10.56 32 21.12 32 32 C26.72 32 21.44 32 16 32 C16 26.72 16 21.44 16 16 C10.72 16 5.44 16 0 16 C0 10.72 0 5.44 0 0 Z " fill="#2E2E2E" transform="translate(208,80)"/>
<path d="M0 0 C10.56 0 21.12 0 32 0 C32 5.28 32 10.56 32 16 C26.72 16 21.44 16 16 16 C16 21.28 16 26.56 16 32 C10.72 32 5.44 32 0 32 C0 21.44 0 10.88 0 0 Z " fill="#3C3C3C" transform="translate(96,80)"/>
<path d="M0 0 C10.56 0 21.12 0 32 0 C32 10.56 32 21.12 32 32 C26.72 32 21.44 32 16 32 C16 26.72 16 21.44 16 16 C10.72 16 5.44 16 0 16 C0 10.72 0 5.44 0 0 Z " fill="#2E2E2E" transform="translate(176,48)"/>
<path d="M0 0 C10.56 0 21.12 0 32 0 C32 5.28 32 10.56 32 16 C26.72 16 21.44 16 16 16 C16 21.28 16 26.56 16 32 C10.72 32 5.44 32 0 32 C0 21.44 0 10.88 0 0 Z " fill="#3C3C3C" transform="translate(128,48)"/>
<path d="M0 0 C10.56 0 21.12 0 32 0 C32 5.28 32 10.56 32 16 C21.44 16 10.88 16 0 16 C0 10.72 0 5.44 0 0 Z " fill="#543D19" transform="translate(32,480)"/>
<path d="M0 0 C10.56 0 21.12 0 32 0 C32 5.28 32 10.56 32 16 C21.44 16 10.88 16 0 16 C0 10.72 0 5.44 0 0 Z " fill="#7C7C7C" transform="translate(272,288)"/>
<path d="M0 0 C10.56 0 21.12 0 32 0 C32 5.28 32 10.56 32 16 C21.44 16 10.88 16 0 16 C0 10.72 0 5.44 0 0 Z " fill="#E6E6E6" transform="translate(176,272)"/>
<path d="M0 0 C5.28 0 10.56 0 16 0 C16 10.56 16 21.12 16 32 C10.72 32 5.44 32 0 32 C0 21.44 0 10.88 0 0 Z " fill="#E6E6E6" transform="translate(160,240)"/>
<path d="M0 0 C5.28 0 10.56 0 16 0 C16 10.56 16 21.12 16 32 C10.72 32 5.44 32 0 32 C0 21.44 0 10.88 0 0 Z " fill="#E6E6E6" transform="translate(128,176)"/>
<path d="M0 0 C5.28 0 10.56 0 16 0 C16 10.56 16 21.12 16 32 C10.72 32 5.44 32 0 32 C0 21.44 0 10.88 0 0 Z " fill="#999999" transform="translate(112,176)"/>
<path d="M0 0 C5.28 0 10.56 0 16 0 C16 10.56 16 21.12 16 32 C10.72 32 5.44 32 0 32 C0 21.44 0 10.88 0 0 Z " fill="#7C7C7C" transform="translate(320,144)"/>
<path d="M0 0 C10.56 0 21.12 0 32 0 C32 5.28 32 10.56 32 16 C21.44 16 10.88 16 0 16 C0 10.72 0 5.44 0 0 Z " fill="#8A8A8A" transform="translate(144,144)"/>
<path d="M0 0 C10.56 0 21.12 0 32 0 C32 5.28 32 10.56 32 16 C21.44 16 10.88 16 0 16 C0 10.72 0 5.44 0 0 Z " fill="#543D19" transform="translate(32,16)"/>
<path d="M0 0 C5.28 0 10.56 0 16 0 C16 5.28 16 10.56 16 16 C10.72 16 5.44 16 0 16 C0 10.72 0 5.44 0 0 Z " fill="#999999" transform="translate(208,288)"/>
<path d="M0 0 C5.28 0 10.56 0 16 0 C16 5.28 16 10.56 16 16 C10.72 16 5.44 16 0 16 C0 10.72 0 5.44 0 0 Z " fill="#999999" transform="translate(176,288)"/>
<path d="M0 0 C5.28 0 10.56 0 16 0 C16 5.28 16 10.56 16 16 C10.72 16 5.44 16 0 16 C0 10.72 0 5.44 0 0 Z " fill="#7C7C7C" transform="translate(304,272)"/>
<path d="M0 0 C5.28 0 10.56 0 16 0 C16 5.28 16 10.56 16 16 C10.72 16 5.44 16 0 16 C0 10.72 0 5.44 0 0 Z " fill="#999999" transform="translate(160,272)"/>
<path d="M0 0 C5.28 0 10.56 0 16 0 C16 5.28 16 10.56 16 16 C10.72 16 5.44 16 0 16 C0 10.72 0 5.44 0 0 Z " fill="#3C3C3C" transform="translate(144,272)"/>
<path d="M0 0 C5.28 0 10.56 0 16 0 C16 5.28 16 10.56 16 16 C10.72 16 5.44 16 0 16 C0 10.72 0 5.44 0 0 Z " fill="#3C3C3C" transform="translate(128,256)"/>
<path d="M0 0 C5.28 0 10.56 0 16 0 C16 5.28 16 10.56 16 16 C10.72 16 5.44 16 0 16 C0 10.72 0 5.44 0 0 Z " fill="#999999" transform="translate(144,240)"/>
<path d="M0 0 C5.28 0 10.56 0 16 0 C16 5.28 16 10.56 16 16 C10.72 16 5.44 16 0 16 C0 10.72 0 5.44 0 0 Z " fill="#3C3C3C" transform="translate(112,240)"/>
<path d="M0 0 C5.28 0 10.56 0 16 0 C16 5.28 16 10.56 16 16 C10.72 16 5.44 16 0 16 C0 10.72 0 5.44 0 0 Z " fill="#E6E6E6" transform="translate(144,224)"/>
<path d="M0 0 C5.28 0 10.56 0 16 0 C16 5.28 16 10.56 16 16 C10.72 16 5.44 16 0 16 C0 10.72 0 5.44 0 0 Z " fill="#919191" transform="translate(112,224)"/>
<path d="M0 0 C5.28 0 10.56 0 16 0 C16 5.28 16 10.56 16 16 C10.72 16 5.44 16 0 16 C0 10.72 0 5.44 0 0 Z " fill="#3C3C3C" transform="translate(96,224)"/>
<path d="M0 0 C5.28 0 10.56 0 16 0 C16 5.28 16 10.56 16 16 C10.72 16 5.44 16 0 16 C0 10.72 0 5.44 0 0 Z " fill="#2E2E2E" transform="translate(112,208)"/>
<path d="M0 0 C5.28 0 10.56 0 16 0 C16 5.28 16 10.56 16 16 C10.72 16 5.44 16 0 16 C0 10.72 0 5.44 0 0 Z " fill="#3C3C3C" transform="translate(80,208)"/>
<path d="M0 0 C5.28 0 10.56 0 16 0 C16 5.28 16 10.56 16 16 C10.72 16 5.44 16 0 16 C0 10.72 0 5.44 0 0 Z " fill="#FFFFFF" transform="translate(208,192)"/>
<path d="M0 0 C5.28 0 10.56 0 16 0 C16 5.28 16 10.56 16 16 C10.72 16 5.44 16 0 16 C0 10.72 0 5.44 0 0 Z " fill="#3C3C3C" transform="translate(64,192)"/>
<path d="M0 0 C5.28 0 10.56 0 16 0 C16 5.28 16 10.56 16 16 C10.72 16 5.44 16 0 16 C0 10.72 0 5.44 0 0 Z " fill="#3C3C3C" transform="translate(48,176)"/>
<path d="M0 0 C5.28 0 10.56 0 16 0 C16 5.28 16 10.56 16 16 C10.72 16 5.44 16 0 16 C0 10.72 0 5.44 0 0 Z " fill="#8A8A8A" transform="translate(128,160)"/>
<path d="M0 0 C5.28 0 10.56 0 16 0 C16 5.28 16 10.56 16 16 C10.72 16 5.44 16 0 16 C0 10.72 0 5.44 0 0 Z " fill="#3C3C3C" transform="translate(64,160)"/>
<path d="M0 0 C5.28 0 10.56 0 16 0 C16 5.28 16 10.56 16 16 C10.72 16 5.44 16 0 16 C0 10.72 0 5.44 0 0 Z " fill="#E9DBAB" transform="translate(48,160)"/>
<path d="M0 0 C5.28 0 10.56 0 16 0 C16 5.28 16 10.56 16 16 C10.72 16 5.44 16 0 16 C0 10.72 0 5.44 0 0 Z " fill="#3C3C3C" transform="translate(48,144)"/>
<path d="M0 0 C5.28 0 10.56 0 16 0 C16 5.28 16 10.56 16 16 C10.72 16 5.44 16 0 16 C0 10.72 0 5.44 0 0 Z " fill="#7C7C7C" transform="translate(304,128)"/>
<path d="M0 0 C5.28 0 10.56 0 16 0 C16 5.28 16 10.56 16 16 C10.72 16 5.44 16 0 16 C0 10.72 0 5.44 0 0 Z " fill="#8A8A8A" transform="translate(176,128)"/>
<path d="M0 0 C5.28 0 10.56 0 16 0 C16 5.28 16 10.56 16 16 C10.72 16 5.44 16 0 16 C0 10.72 0 5.44 0 0 Z " fill="#3C3C3C" transform="translate(112,128)"/>
<path d="M0 0 C5.28 0 10.56 0 16 0 C16 5.28 16 10.56 16 16 C10.72 16 5.44 16 0 16 C0 10.72 0 5.44 0 0 Z " fill="#2E2E2E" transform="translate(48,128)"/>
<path d="M0 0 C5.28 0 10.56 0 16 0 C16 5.28 16 10.56 16 16 C10.72 16 5.44 16 0 16 C0 10.72 0 5.44 0 0 Z " fill="#2E2E2E" transform="translate(112,112)"/>
<path d="M0 0 C5.28 0 10.56 0 16 0 C16 5.28 16 10.56 16 16 C10.72 16 5.44 16 0 16 C0 10.72 0 5.44 0 0 Z " fill="#3C3C3C" transform="translate(80,112)"/>
<path d="M0 0 C5.28 0 10.56 0 16 0 C16 5.28 16 10.56 16 16 C10.72 16 5.44 16 0 16 C0 10.72 0 5.44 0 0 Z " fill="#3C3C3C" transform="translate(224,96)"/>
<path d="M0 0 C5.28 0 10.56 0 16 0 C16 5.28 16 10.56 16 16 C10.72 16 5.44 16 0 16 C0 10.72 0 5.44 0 0 Z " fill="#3C3C3C" transform="translate(96,96)"/>
<path d="M0 0 C5.28 0 10.56 0 16 0 C16 5.28 16 10.56 16 16 C10.72 16 5.44 16 0 16 C0 10.72 0 5.44 0 0 Z " fill="#3C3C3C" transform="translate(208,80)"/>
<path d="M0 0 C5.28 0 10.56 0 16 0 C16 5.28 16 10.56 16 16 C10.72 16 5.44 16 0 16 C0 10.72 0 5.44 0 0 Z " fill="#2E2E2E" transform="translate(96,80)"/>
<path d="M0 0 C5.28 0 10.56 0 16 0 C16 5.28 16 10.56 16 16 C10.72 16 5.44 16 0 16 C0 10.72 0 5.44 0 0 Z " fill="#3C3C3C" transform="translate(192,64)"/>
<path d="M0 0 C5.28 0 10.56 0 16 0 C16 5.28 16 10.56 16 16 C10.72 16 5.44 16 0 16 C0 10.72 0 5.44 0 0 Z " fill="#3C3C3C" transform="translate(160,64)"/>
<path d="M0 0 C5.28 0 10.56 0 16 0 C16 5.28 16 10.56 16 16 C10.72 16 5.44 16 0 16 C0 10.72 0 5.44 0 0 Z " fill="#3C3C3C" transform="translate(128,64)"/>
<path d="M0 0 C5.28 0 10.56 0 16 0 C16 5.28 16 10.56 16 16 C10.72 16 5.44 16 0 16 C0 10.72 0 5.44 0 0 Z " fill="#3C3C3C" transform="translate(176,48)"/>
<path d="M0 0 C5.28 0 10.56 0 16 0 C16 5.28 16 10.56 16 16 C10.72 16 5.44 16 0 16 C0 10.72 0 5.44 0 0 Z " fill="#E9DBAB" transform="translate(160,48)"/>
<path d="M0 0 C5.28 0 10.56 0 16 0 C16 5.28 16 10.56 16 16 C10.72 16 5.44 16 0 16 C0 10.72 0 5.44 0 0 Z " fill="#2E2E2E" transform="translate(128,48)"/>
</svg>
